<svg width="9" height="18" viewBox="0 0 9 18" version="1.1" xmlns="http://www.w3.org/2000/svg" xmlns:xlink="http://www.w3.org/1999/xlink">
<title>Vector</title>
<desc>Created using Figma</desc>
<g id="Canvas" transform="translate(5878 4070)">
<g id="Vector">
<use xlink:href="#path0_stroke" transform="translate(-5877 -4069)" fill="#B5B5B5"/>
</g>
</g>
<defs>
<path id="path0_stroke" d="M 3.29412 0L 3.99745 -0.710858C 3.60781 -1.09638 2.98043 -1.09638 2.59078 -0.710858L 3.29412 0ZM 3.29412 16L 2.59078 16.7109C 2.98043 17.0964 3.60781 17.0964 3.99745 16.7109L 3.29412 16ZM 7.29157 13.4516C 7.68417 13.0632 7.68753 12.43 7.29909 12.0374C 6.91065 11.6448 6.2775 11.6414 5.8849 12.0299L 7.29157 13.4516ZM 0.703336 12.0299C 0.31074 11.6414 -0.322416 11.6448 -0.710858 12.0374C -1.0993 12.43 -1.09593 13.0632 -0.703336 13.4516L 0.703336 12.0299ZM -0.703336 2.5484C -1.09593 2.93684 -1.0993 3.57 -0.710858 3.96259C -0.322416 4.35519 0.31074 4.35856 0.703336 3.97012L -0.703336 2.5484ZM 5.8849 3.97012C 6.2775 4.35856 6.91065 4.35519 7.29909 3.96259C 7.68753 3.57 7.68417 2.93684 7.29157 2.5484L 5.8849 3.97012ZM 2.29412 0L 2.29412 16L 4.29412 16L 4.29412 0L 2.29412 0ZM 3.99745 16.7109L 7.29157 13.4516L 5.8849 12.0299L 2.59078 15.2891L 3.99745 16.7109ZM 3.99745 15.2891L 0.703336 12.0299L -0.703336 13.4516L 2.59078 16.7109L 3.99745 15.2891ZM 2.59078 -0.710858L -0.703336 2.5484L 0.703336 3.97012L 3.99745 0.710858L 2.59078 -0.710858ZM 2.59078 0.710858L 5.8849 3.97012L 7.29157 2.5484L 3.99745 -0.710858L 2.59078 0.710858Z"/>
</defs>
</svg>
